<?xml version="1.0" encoding="utf-8"?>
<!-- Generator: Adobe Illustrator 16.0.0, SVG Export Plug-In . SVG Version: 6.00 Build 0)  -->
<!DOCTYPE svg PUBLIC "-//W3C//DTD SVG 1.1//EN" "http://www.w3.org/Graphics/SVG/1.1/DTD/svg11.dtd">
<svg version="1.1" id="Capa_1" xmlns="http://www.w3.org/2000/svg" xmlns:xlink="http://www.w3.org/1999/xlink" x="0px" y="0px"
	 width="168px" height="25px" viewBox="0 0 168 25" enable-background="new 0 0 168 25" xml:space="preserve">
<g id="Capa_2_1_" display="none">
	<rect display="inline" width="168.213" height="24.84"/>
</g>
<g id="Capa_1_1_">
	<g id="Capa_2">
		<path id="_x38_" fill="#041464" stroke="#CACDDF" stroke-width="0.15" stroke-miterlimit="10" d="M11.543,24.684
			c0,0.086-0.07,0.156-0.156,0.156H6.452c-0.086,0-0.156-0.07-0.156-0.156v-4.933c0-0.089,0.071-0.157,0.156-0.157h4.934
			c0.087,0,0.156,0.068,0.156,0.157L11.543,24.684L11.543,24.684z"/>
		<path id="_x35_" fill="#041464" stroke="#CACDDF" stroke-width="0.15" stroke-miterlimit="10" d="M11.543,18.387
			c0,0.086-0.07,0.156-0.156,0.156H6.452c-0.086,0-0.156-0.07-0.156-0.156v-4.933c0-0.088,0.071-0.157,0.156-0.157h4.934
			c0.087,0,0.156,0.069,0.156,0.157L11.543,18.387L11.543,18.387z"/>
		<path id="_x31_" fill="#041464" stroke="#CACDDF" stroke-width="0.15" stroke-miterlimit="10" d="M5.248,12.091
			c0,0.086-0.071,0.155-0.157,0.155H0.157C0.069,12.246,0,12.177,0,12.091V7.156C0,7.069,0.071,7,0.157,7H5.09
			c0.087,0,0.158,0.07,0.158,0.157V12.091z"/>
		<path id="_x32_" fill="#041464" stroke="#CACDDF" stroke-width="0.15" stroke-miterlimit="10" d="M11.543,12.091
			c0,0.086-0.07,0.155-0.156,0.155H6.452c-0.086,0-0.156-0.069-0.156-0.155V7.156C6.296,7.069,6.367,7,6.453,7h4.934
			c0.087,0,0.156,0.07,0.156,0.157V12.091L11.543,12.091z"/>
		<path id="_x39_" fill="#CACDDF" d="M17.84,24.684c0,0.086-0.07,0.156-0.156,0.156H12.75c-0.086,0-0.156-0.07-0.156-0.156v-4.933
			c0-0.089,0.071-0.157,0.156-0.157h4.934c0.086,0,0.156,0.068,0.156,0.157V24.684z"/>
		<path id="_x37_" fill="#CACDDF" d="M5.248,24.684c0,0.086-0.071,0.156-0.157,0.156H0.157C0.069,24.84,0,24.77,0,24.684v-4.933
			c0-0.089,0.071-0.157,0.157-0.157H5.09c0.087,0,0.156,0.068,0.156,0.157v4.933H5.248z"/>
		<path id="_x36_" fill="#CACDDF" d="M17.84,18.387c0,0.086-0.07,0.156-0.156,0.156H12.75c-0.086,0-0.156-0.07-0.156-0.156v-4.933
			c0-0.088,0.071-0.157,0.156-0.157h4.934c0.086,0,0.156,0.069,0.156,0.157V18.387z"/>
		<path id="_x34_" fill="#CACDDF" d="M5.248,18.387c0,0.086-0.071,0.156-0.157,0.156H0.157C0.069,18.543,0,18.473,0,18.387v-4.933
			c0-0.088,0.071-0.157,0.157-0.157H5.09c0.087,0,0.156,0.069,0.156,0.157v4.933H5.248z"/>
		<path id="_x33_" fill="#CACDDF" d="M17.84,12.091c0,0.086-0.07,0.155-0.156,0.155H12.75c-0.086,0-0.156-0.069-0.156-0.155V7.156
			C12.594,7.069,12.665,7,12.75,7h4.934c0.087,0,0.156,0.069,0.156,0.156V12.091z"/>
		<circle fill="#FC0515" cx="9.3" cy="2.827" r="2.827"/>
	</g>
	<g display="none">
		<path display="inline" fill="#242A45" d="M37,6.299h5.227c0.746,0,1.434,0.155,2.062,0.466c0.629,0.311,1.123,0.735,1.484,1.27
			c0.361,0.535,0.542,1.12,0.542,1.754c0,0.672-0.165,1.254-0.495,1.746c-0.33,0.491-0.762,0.868-1.297,1.129v0.15
			c0.697,0.249,1.25,0.643,1.661,1.185c0.41,0.541,0.616,1.19,0.616,1.95c0,0.734-0.196,1.385-0.588,1.951
			c-0.399,0.572-0.948,1.021-1.587,1.307c-0.665,0.305-1.403,0.457-2.212,0.457H37V6.299z M42.04,11.749
			c0.548,0,0.986-0.152,1.316-0.457s0.495-0.688,0.495-1.148c0-0.448-0.159-0.824-0.476-1.13c-0.318-0.304-0.738-0.457-1.26-0.457
			H39.52v3.192H42.04z M42.32,17.368c0.61,0,1.086-0.159,1.428-0.476c0.342-0.317,0.513-0.731,0.513-1.242
			c0-0.51-0.174-0.926-0.522-1.25c-0.349-0.324-0.847-0.485-1.494-0.485H39.52v3.453H42.32z M55.247,19.963
			c-1.307,0-2.492-0.308-3.556-0.924c-1.05-0.602-1.917-1.477-2.511-2.53c-0.61-1.069-0.915-2.245-0.915-3.528
			c0-1.281,0.305-2.457,0.915-3.528c0.593-1.054,1.46-1.928,2.51-2.529C52.756,6.308,53.94,6,55.248,6
			c1.306,0,2.492,0.308,3.556,0.924c1.049,0.602,1.917,1.476,2.51,2.53c0.61,1.07,0.915,2.246,0.915,3.527
			c0,1.283-0.305,2.458-0.915,3.528c-0.593,1.054-1.46,1.929-2.51,2.53C57.74,19.655,56.554,19.963,55.247,19.963L55.247,19.963z
			 M55.247,17.573c0.79,0.008,1.569-0.191,2.258-0.578c0.679-0.38,1.239-0.942,1.615-1.624c0.392-0.697,0.588-1.494,0.588-2.39
			s-0.196-1.692-0.588-2.389c-0.376-0.681-0.936-1.244-1.615-1.624c-0.689-0.387-1.468-0.586-2.258-0.579
			c-0.788-0.009-1.564,0.191-2.25,0.579c-0.675,0.383-1.23,0.945-1.605,1.624c-0.392,0.697-0.588,1.493-0.588,2.39
			c0,0.895,0.196,1.692,0.588,2.389c0.375,0.68,0.93,1.24,1.605,1.624C53.683,17.383,54.459,17.582,55.247,17.573z M70.6,19.963
			c-1.307,0-2.492-0.308-3.556-0.924c-1.049-0.602-1.917-1.477-2.51-2.53c-0.61-1.069-0.915-2.245-0.915-3.528
			c0-1.281,0.305-2.457,0.914-3.528c0.594-1.054,1.461-1.928,2.511-2.529C68.108,6.308,69.294,6,70.6,6
			c1.307,0,2.492,0.308,3.556,0.924c1.049,0.602,1.917,1.476,2.51,2.53c0.609,1.07,0.915,2.246,0.915,3.527
			c0,1.283-0.306,2.458-0.914,3.528c-0.594,1.056-1.462,1.929-2.511,2.53C73.092,19.655,71.906,19.963,70.6,19.963z M70.6,17.573
			c0.791,0.008,1.569-0.191,2.259-0.578c0.679-0.38,1.238-0.942,1.614-1.624c0.392-0.697,0.587-1.494,0.587-2.39
			s-0.195-1.692-0.587-2.389c-0.376-0.681-0.936-1.243-1.614-1.624C72.17,8.581,71.391,8.381,70.6,8.389
			c-0.788-0.009-1.564,0.191-2.25,0.579c-0.675,0.383-1.23,0.945-1.605,1.624c-0.392,0.697-0.588,1.493-0.588,2.39
			c0,0.895,0.196,1.692,0.588,2.389c0.375,0.68,0.931,1.242,1.606,1.624C69.037,17.383,69.813,17.582,70.6,17.573z M79.83,6.3h2.52
			v5.73h0.15l4.891-5.73h3.043v0.149L85.6,11.973l5.338,7.542v0.146h-3.08l-3.994-5.693l-1.512,1.773v3.92h-2.52V6.299L79.83,6.3z
			 M93.779,6h3.248l3.546,9.391h0.149L104.268,6h3.271v13.365h-2.501v-6.589l0.146-2.221h-0.146l-3.396,8.81h-1.963l-3.414-8.81
			h-0.147l0.149,2.221v6.59h-2.483V6H93.779z M114.579,6h2.894l5.021,13.365h-2.781l-1.12-3.192h-5.114l-1.121,3.192h-2.777
			L114.579,6z M117.771,13.859l-1.176-3.36l-0.486-1.606h-0.148l-0.484,1.606l-1.192,3.36H117.771L117.771,13.859z M124.553,6h4.872
			c0.871,0,1.646,0.18,2.324,0.541c0.678,0.361,1.204,0.862,1.577,1.503c0.374,0.64,0.561,1.366,0.561,2.175
			c0,0.858-0.271,1.62-0.813,2.286c-0.535,0.661-1.242,1.162-2.045,1.447l-0.018,0.13l3.584,5.134v0.15H131.7l-3.453-5.022h-1.179
			v5.021h-2.521V6H124.553z M129.406,12.03c0.572,0,1.039-0.175,1.4-0.523c0.357-0.349,0.541-0.79,0.541-1.326
			c0-0.51-0.175-0.945-0.517-1.306c-0.343-0.361-0.81-0.542-1.394-0.542h-2.369v3.696h2.332v0.001H129.406z M136.637,6h2.521v5.73
			h0.148L144.195,6h3.043v0.15l-4.834,5.525l5.34,7.541v0.15h-3.08l-3.996-5.694l-1.512,1.773v3.92h-2.521L136.637,6L136.637,6z"/>
		<g display="inline">
			<circle fill="#5267DF" cx="12.5" cy="12.5" r="12.5"/>
			<path fill="#FFFFFF" d="M9,9v10l3.54-3.439L16.078,19V9c0-1.104-0.896-2-2-2H11C9.896,7,9,7.896,9,9z"/>
		</g>
	</g>
	
		<text transform="matrix(0.9057 0 0 1 30.3828 21.2168)" display="none" fill="#FFFFFF" enable-background="new    " font-family="'Gadugi-Bold'" font-size="19.08">INFOCAL POTOSÍ</text>
	<g>
		<path fill="#FFFFFF" d="M28.495,6.781V22.07h-2.508V6.781H28.495z"/>
		<path fill="#FFFFFF" d="M40.254,10.345c0.755,0.396,1.345,0.983,1.771,1.76c0.425,0.777,0.638,1.715,0.638,2.816v7.149h-2.486
			v-6.776c0-1.085-0.271-1.917-0.814-2.497c-0.543-0.579-1.284-0.869-2.222-0.869s-1.683,0.29-2.233,0.869
			c-0.55,0.58-0.825,1.412-0.825,2.497v6.776h-2.508V9.949h2.508v1.386c0.41-0.499,0.935-0.887,1.573-1.166
			c0.638-0.279,1.316-0.418,2.035-0.418C38.644,9.751,39.498,9.949,40.254,10.345z"/>
		<path fill="#FFFFFF" d="M50.714,11.995H48.47V22.07h-2.53V11.995h-1.43V9.949h1.43V9.091c0-1.393,0.37-2.409,1.111-3.047
			c0.741-0.638,1.903-0.957,3.487-0.957v2.09c-0.763,0-1.298,0.143-1.606,0.429S48.47,8.387,48.47,9.091v0.858h2.244V11.995z"/>
		<path fill="#FFFFFF" d="M54.872,21.488c-0.924-0.521-1.65-1.254-2.178-2.2c-0.528-0.946-0.792-2.042-0.792-3.288
			c0-1.232,0.271-2.325,0.814-3.279c0.542-0.953,1.283-1.687,2.222-2.2c0.938-0.513,1.987-0.77,3.146-0.77
			c1.158,0,2.207,0.257,3.146,0.77c0.938,0.513,1.679,1.247,2.222,2.2c0.542,0.954,0.814,2.046,0.814,3.279
			c0,1.23-0.279,2.324-0.836,3.277c-0.557,0.953-1.316,1.689-2.277,2.211c-0.961,0.521-2.021,0.781-3.179,0.781
			C56.83,22.27,55.796,22.009,54.872,21.488z M59.789,19.629c0.564-0.309,1.023-0.77,1.375-1.386s0.528-1.364,0.528-2.243
			c0-0.881-0.169-1.625-0.506-2.234c-0.338-0.606-0.785-1.065-1.342-1.375c-0.558-0.308-1.159-0.462-1.804-0.462
			c-0.646,0-1.243,0.154-1.793,0.462c-0.55,0.308-0.987,0.767-1.309,1.375c-0.323,0.609-0.484,1.354-0.484,2.234
			c0,1.305,0.333,2.313,1.001,3.023c0.667,0.713,1.507,1.067,2.519,1.067C58.619,20.092,59.224,19.938,59.789,19.629z"/>
		<path fill="#FFFFFF" d="M66.455,12.71c0.506-0.946,1.206-1.676,2.101-2.189s1.921-0.77,3.08-0.77c1.466,0,2.68,0.348,3.641,1.045
			c0.96,0.697,1.61,1.69,1.947,2.981h-2.706c-0.22-0.603-0.572-1.07-1.056-1.408c-0.484-0.337-1.093-0.506-1.826-0.506
			c-1.027,0-1.844,0.363-2.453,1.089C68.574,13.678,68.27,14.693,68.27,16c0,1.305,0.304,2.324,0.913,3.057
			c0.609,0.734,1.426,1.102,2.453,1.102c1.452,0,2.413-0.639,2.882-1.914h2.706c-0.352,1.23-1.012,2.211-1.98,2.938
			c-0.968,0.727-2.17,1.09-3.608,1.09c-1.159,0-2.186-0.262-3.08-0.781c-0.894-0.521-1.595-1.254-2.101-2.2
			s-0.759-2.042-0.759-3.288C65.696,14.753,65.949,13.656,66.455,12.71z"/>
		<path fill="#FFFFFF" d="M79.435,12.721c0.506-0.938,1.195-1.668,2.067-2.189c0.873-0.521,1.837-0.781,2.894-0.781
			c0.954,0,1.786,0.187,2.497,0.561s1.279,0.839,1.705,1.397v-1.76h2.529V22.07h-2.529v-1.803c-0.426,0.571-1.005,1.049-1.738,1.43
			c-0.732,0.381-1.568,0.572-2.507,0.572c-1.042,0-1.995-0.269-2.86-0.804c-0.865-0.534-1.551-1.282-2.057-2.243
			c-0.506-0.962-0.759-2.051-0.759-3.269C78.676,14.738,78.929,13.66,79.435,12.721z M88.08,13.82
			c-0.346-0.615-0.796-1.084-1.354-1.407c-0.558-0.322-1.158-0.484-1.805-0.484c-0.646,0-1.246,0.158-1.804,0.473
			c-0.558,0.315-1.009,0.778-1.353,1.386c-0.345,0.608-0.518,1.331-0.518,2.167s0.173,1.57,0.518,2.2
			c0.344,0.631,0.799,1.11,1.363,1.439c0.564,0.33,1.163,0.496,1.793,0.496c0.646,0,1.247-0.161,1.806-0.483
			c0.557-0.322,1.008-0.795,1.353-1.42c0.345-0.623,0.519-1.353,0.519-2.188C88.598,15.163,88.425,14.438,88.08,13.82z"/>
		<path fill="#FFFFFF" d="M96.716,5.792v16.28h-2.508V5.792H96.716z"/>
		<path fill="#FFFFFF" d="M115.438,13.535c-0.367,0.689-0.953,1.25-1.76,1.684c-0.807,0.432-1.841,0.648-3.103,0.648h-2.771v6.203
			h-2.509V6.781h5.279c1.174,0,2.167,0.202,2.981,0.604c0.813,0.404,1.422,0.95,1.825,1.639s0.604,1.459,0.604,2.31
			C115.986,12.113,115.805,12.846,115.438,13.535z M112.71,13.172c0.47-0.432,0.703-1.044,0.703-1.836
			c0-1.672-0.945-2.508-2.838-2.508h-2.771v4.994h2.771C111.527,13.82,112.24,13.605,112.71,13.172z"/>
		<path fill="#FFFFFF" d="M120.32,21.488c-0.924-0.521-1.649-1.254-2.178-2.2c-0.529-0.946-0.793-2.042-0.793-3.288
			c0-1.232,0.271-2.325,0.814-3.279c0.542-0.953,1.283-1.687,2.223-2.2c0.938-0.513,1.986-0.77,3.146-0.77s2.208,0.257,3.146,0.77
			c0.938,0.513,1.68,1.247,2.223,2.2c0.543,0.954,0.813,2.046,0.813,3.279c0,1.23-0.278,2.324-0.836,3.277s-1.315,1.689-2.276,2.211
			c-0.961,0.521-2.021,0.781-3.18,0.781C122.277,22.27,121.245,22.009,120.32,21.488z M125.236,19.629
			c0.564-0.309,1.023-0.77,1.375-1.386c0.354-0.616,0.529-1.364,0.529-2.243c0-0.881-0.17-1.625-0.507-2.234
			c-0.338-0.606-0.784-1.065-1.342-1.375c-0.558-0.308-1.159-0.462-1.806-0.462c-0.646,0-1.241,0.154-1.793,0.462
			c-0.549,0.308-0.985,0.767-1.309,1.375C120.063,14.375,119.9,15.12,119.9,16c0,1.305,0.334,2.313,1.002,3.023
			c0.668,0.713,1.508,1.067,2.52,1.067C124.066,20.092,124.673,19.938,125.236,19.629z"/>
		<path fill="#FFFFFF" d="M134.906,11.995v6.71c0,0.455,0.105,0.781,0.318,0.979c0.213,0.199,0.575,0.299,1.09,0.299h1.539v2.09
			h-1.979c-1.13,0-1.995-0.266-2.597-0.792c-0.602-0.527-0.901-1.388-0.901-2.574v-6.71h-1.431V9.949h1.431V6.935h2.53v3.014h2.947
			v2.046H134.906z"/>
		<path fill="#FFFFFF" d="M142.1,21.488c-0.924-0.521-1.648-1.254-2.178-2.2S139.13,17.246,139.13,16
			c0-1.232,0.271-2.325,0.813-3.279c0.543-0.953,1.283-1.687,2.223-2.2s1.986-0.77,3.146-0.77c1.158,0,2.207,0.257,3.146,0.77
			s1.679,1.247,2.222,2.2c0.543,0.954,0.814,2.046,0.814,3.279c0,1.23-0.279,2.324-0.836,3.277
			c-0.559,0.953-1.316,1.689-2.277,2.211c-0.961,0.521-2.021,0.781-3.179,0.781C144.059,22.27,143.023,22.009,142.1,21.488z
			 M147.018,19.629c0.563-0.309,1.022-0.77,1.375-1.386s0.527-1.364,0.527-2.243c0-0.881-0.169-1.625-0.506-2.234
			c-0.338-0.606-0.785-1.065-1.342-1.375c-0.559-0.308-1.159-0.462-1.805-0.462c-0.646,0-1.242,0.154-1.793,0.462
			s-0.986,0.767-1.31,1.375c-0.323,0.609-0.483,1.354-0.483,2.234c0,1.305,0.334,2.313,1,3.023c0.668,0.713,1.508,1.067,2.521,1.067
			C145.848,20.092,146.452,19.938,147.018,19.629z"/>
		<path fill="#FFFFFF" d="M155.598,21.752c-0.756-0.344-1.354-0.813-1.793-1.408c-0.439-0.594-0.675-1.257-0.703-1.99h2.596
			c0.044,0.515,0.289,0.942,0.736,1.287c0.447,0.344,1.008,0.518,1.684,0.518c0.703,0,1.25-0.137,1.639-0.407
			s0.583-0.619,0.583-1.045c0-0.454-0.216-0.792-0.647-1.013c-0.434-0.221-1.119-0.461-2.058-0.727
			c-0.909-0.248-1.649-0.49-2.223-0.726c-0.572-0.234-1.065-0.595-1.484-1.078c-0.418-0.483-0.627-1.122-0.627-1.913
			c0-0.646,0.19-1.236,0.571-1.771c0.382-0.536,0.928-0.957,1.641-1.265c0.711-0.308,1.527-0.462,2.451-0.462
			c1.379,0,2.49,0.348,3.333,1.045c0.845,0.697,1.295,1.646,1.354,2.85h-2.508c-0.045-0.543-0.266-0.977-0.66-1.298
			c-0.396-0.322-0.933-0.484-1.606-0.484c-0.66,0-1.166,0.125-1.519,0.374c-0.353,0.25-0.527,0.58-0.527,0.989
			c0,0.324,0.117,0.596,0.354,0.814c0.233,0.221,0.521,0.393,0.856,0.518c0.338,0.125,0.836,0.282,1.496,0.474
			c0.88,0.233,1.603,0.473,2.167,0.715s1.053,0.599,1.463,1.067c0.411,0.47,0.623,1.093,0.639,1.869
			c0,0.689-0.191,1.306-0.572,1.849s-0.92,0.969-1.616,1.274c-0.696,0.31-1.515,0.463-2.453,0.463
			C157.207,22.27,156.354,22.098,155.598,21.752z"/>
		<path fill="#FFFFFF" d="M168.809,6.693l-4.863,2.398V7.243l4.863-2.684V6.693z M167.796,9.949V22.07h-2.508V9.949H167.796z"/>
	</g>
</g>
</svg>
